<!-- icon666.com - MILLIONS vector ICONS FREE --><svg id="Layer_1" viewBox="0 0 48 48" xmlns="http://www.w3.org/2000/svg" data-name="Layer 1"><path d="m8.968 13.145h19.251v12.356h-19.251z" fill="#fcbd55"></path><path d="m16.528 23.878h11.692v-10.733h-17.069v5.355a5.377 5.377 0 0 0 5.377 5.378z" fill="#fcca6e"></path><path d="m16.099 13.145h4.678v4.712h-4.678z" fill="#ff953f"></path><path d="m19.337 16.674h1.439v-3.529h-3.325v1.643a1.887 1.887 0 0 0 1.886 1.886z" fill="#f99e4d"></path><path d="m47.25 24.99-3.861.01-4.345-7.758h-7.588v14.298h15.794z" fill="#00abed"></path><path d="m5.493 24.998h25.963v6.542h-25.963z" fill="#00abed"></path><path d="m39.044 17.242h-6.577v9.778a2.4 2.4 0 0 0 2.4 2.4h12.383v-4.43l-3.861.01z" fill="#53bbf3"></path><path d="m10.224 29.422h21.232v-4.422h-23.633v2.02a2.4 2.4 0 0 0 2.401 2.402z" fill="#53bbf3"></path><circle cx="40.363" cy="31.54" fill="#323648" r="3.313"></circle><circle cx="15.898" cy="31.54" fill="#323648" r="3.313"></circle><path d="m34.775 24.988h5.883l-2.825-5.22h-3.058z" fill="#80cdf6"></path><path d="m34.775 24.988h5.883l-2.825-5.22h-3.058z" fill="#80cdf6"></path><path d="m37.833 19.768h-1.963v1.548a3.075 3.075 0 0 0 3.075 3.075h1.39z" fill="#a5ddf8"></path><circle cx="15.898" cy="31.54" r="1.25"></circle><circle cx="40.363" cy="31.54" r="1.25"></circle><path d="m47.78 24.458a.752.752 0 0 0 -.53-.219l-3.429.01-4.073-6.992a1.49 1.49 0 0 0 -1.3-.765h-6.991a.75.75 0 0 0 -.75.75v7.006h-1.737v-10.379a1.476 1.476 0 0 0 -1.47-1.469h-17.807a1.476 1.476 0 0 0 -1.475 1.474v4.226a.75.75 0 0 0 1.5 0l-.025-4.2 5.656-.009v3.971a.75.75 0 0 0 .75.75h4.677a.75.75 0 0 0 .75-.75v-3.984l5.944-.009v10.379h-17.752v-3.105h2.06a.75.75 0 0 0 0-1.5h-7.171a.75.75 0 1 0 0 1.5h3.611v3.105h-2.725a.75.75 0 0 0 -.75.75v1.529h-1.81a.75.75 0 0 0 0 1.5h4.14a.75.75 0 0 0 0-1.5h-.83v-.779h24.464v5.042h-10.822a4.055 4.055 0 0 0 -7.974 0h-5.668v-1.283a.75.75 0 0 0 -1.5 0v2.033a.75.75 0 0 0 .75.75h6.418a4.055 4.055 0 0 0 7.974 0h16.492a4.055 4.055 0 0 0 7.973 0h2.9a.75.75 0 0 0 .75-.75v-6.551a.751.751 0 0 0 -.22-.531zm-27.754-7.351h-3.177v-3.207h3.177zm-4.126 16.993a2.565 2.565 0 1 1 2.56-2.56 2.566 2.566 0 0 1 -2.56 2.56zm24.466 0a2.565 2.565 0 1 1 2.563-2.565 2.566 2.566 0 0 1 -2.566 2.565zm6.134-3.31h-2.15a4.055 4.055 0 0 0 -7.973 0h-4.17v-12.8l6.235.01 4.3 7.379a.75.75 0 0 0 .648.372l3.109-.009z"></path><path d="m4.661 23.835a.75.75 0 0 0 -.75-.75h-3.161a.75.75 0 0 0 0 1.5h3.161a.75.75 0 0 0 .75-.75z"></path><path d="m4.168 17.7h2.592a.75.75 0 1 0 0-1.5h-2.592a.75.75 0 1 0 0 1.5z"></path><path d="m38.492 19.41a.749.749 0 0 0 -.659-.392h-3.058a.75.75 0 0 0 -.75.75v5.22a.75.75 0 0 0 .75.75h5.883a.75.75 0 0 0 .66-1.107zm-2.967 4.828v-3.72h1.861l2.013 3.72z"></path></svg>