<!-- icon666.com - MILLIONS vector ICONS FREE --><svg id="Layer_1" viewBox="0 0 256 256" xmlns="http://www.w3.org/2000/svg"><g><g><g><g><path d="m134.703 44h32.91v132h-32.91z" fill="#d3ba2a"></path></g></g><g><g><path d="m71.613 44h32.91v132h-32.91z" fill="#ede49d"></path></g></g><g><g><path d="m104.523 44h30.18v132h-30.18z" fill="#eee045"></path></g></g></g><g><g><path d="m167.613 179h-96c-1.657 0-3-1.343-3-3v-132c0-1.657 1.343-3 3-3h96c1.657 0 3 1.343 3 3v132c0 1.657-1.343 3-3 3zm-93-6h90v-126h-90z" fill="#1c2d6b"></path></g></g><g><g><g><path d="m53.613 56h42v140.147h-42z" fill="#89aadb"></path></g></g><g><g><path d="m143.613 134h42v62.147h-42z" fill="#4b67b0"></path></g></g><g><g><path d="m119.613 134-24-78v140.147h48v-62.147z" fill="#6287c5"></path></g></g></g><g><g><path d="m185.613 199.147h-132c-1.657 0-3-1.343-3-3v-140.147c0-1.657 1.343-3 3-3h42c1.317 0 2.48.859 2.867 2.118l23.349 75.882h63.784c1.657 0 3 1.343 3 3v62.147c0 1.657-1.343 3-3 3zm-129-6h126v-56.147h-63c-1.317 0-2.48-.859-2.867-2.118l-23.349-75.882h-36.784z" fill="#1c2d6b"></path></g></g><g><g><g><path d="m157.226 133.147c0-11.58 2.877-21 6.413-21h-23.026c-11.58 0-21 9.42-21 21s9.42 21 21 21h23.026c-3.536 0-6.413-9.42-6.413-21z" fill="#ef7f72"></path></g></g><g><g><path d="m188 112.147h32.387v42h-32.387z" fill="#e8383b"></path></g></g><g><g><path d="m163.639 112.147c-3.536 0-6.413 9.42-6.413 21s2.877 21 6.413 21h24.361v-42z" fill="#e95947"></path></g></g></g><g><g><path d="m220.387 157.147h-79.774c-13.234 0-24-10.767-24-24s10.766-24 24-24h79.774c1.657 0 3 1.343 3 3v42c0 1.657-1.343 3-3 3zm-79.774-42c-9.925 0-18 8.075-18 18s8.075 18 18 18h76.774v-36z" fill="#1c2d6b"></path></g></g><g><g><g><path d="m157.853 124.147h-17.24c-4.971 0-9 4.029-9 9s4.029 9 9 9h17.24c-.398-2.732-.628-5.776-.628-9s.23-6.268.628-9z" fill="#ede49d"></path></g></g><g><g><path d="m188 124.147h32.387v18h-32.387z" fill="#d3ba2a"></path></g></g><g><g><path d="m157.853 124.147c-.398 2.732-.628 5.776-.628 9s.229 6.268.628 9h30.147v-18z" fill="#eee045"></path></g></g></g><g><g><path d="m220.387 145.147h-79.774c-6.617 0-12-5.383-12-12s5.383-12 12-12h79.774c1.657 0 3 1.343 3 3v18c0 1.657-1.343 3-3 3zm-79.774-18c-3.309 0-6 2.691-6 6s2.691 6 6 6h76.774v-12z" fill="#1c2d6b"></path></g></g><g><g><g><path d="m157.226 175.147c0-11.58 2.877-21 6.413-21h-23.026c-11.58 0-21 9.42-21 21s9.42 21 21 21h23.026c-3.536 0-6.413-9.42-6.413-21z" fill="#a4d4a0"></path></g></g><g><g><path d="m188 154.147h32.387v42h-32.387z" fill="#419b46"></path></g></g><g><g><path d="m163.639 154.147c-3.536 0-6.413 9.42-6.413 21s2.877 21 6.413 21h24.361v-42z" fill="#65bc49"></path></g></g></g><g><g><g><path d="m157.853 166.147h-17.24c-4.971 0-9 4.029-9 9s4.029 9 9 9h17.24c-.398-2.732-.628-5.776-.628-9s.23-6.268.628-9z" fill="#ede49d"></path></g></g><g><g><path d="m188 166.147h32.387v18h-32.387z" fill="#d3ba2a"></path></g></g><g><g><path d="m157.853 166.147c-.398 2.732-.628 5.776-.628 9s.229 6.268.628 9h30.147v-18z" fill="#eee045"></path></g></g></g><g><g><path d="m220.387 199.147h-79.774c-13.234 0-24-10.767-24-24s10.766-24 24-24h79.774c1.657 0 3 1.343 3 3v42c0 1.657-1.343 3-3 3zm-79.774-42c-9.925 0-18 8.075-18 18s8.075 18 18 18h76.774v-36z" fill="#1c2d6b"></path></g></g><g><g><path d="m220.387 187.147h-79.774c-6.617 0-12-5.383-12-12s5.383-12 12-12h79.774c1.657 0 3 1.343 3 3v18c0 1.657-1.343 3-3 3zm-79.774-18c-3.309 0-6 2.691-6 6s2.691 6 6 6h76.774v-12z" fill="#1c2d6b"></path></g></g><g><g><g><path d="m109.71 142.147h33.903v69.853h-33.903z" fill="#d3ba2a"></path></g></g><g><g><path d="m35.613 142.147h33.903v69.853h-33.903z" fill="#ede49d"></path></g></g><g><g><path d="m69.516 142.147h40.194v69.853h-40.194z" fill="#eee045"></path></g></g></g><g><g><path d="m143.613 215h-108c-1.657 0-3-1.343-3-3v-69.853c0-1.657 1.343-3 3-3h108c1.657 0 3 1.343 3 3v69.853c0 1.657-1.343 3-3 3zm-105-6h102v-63.853h-102z" fill="#1c2d6b"></path></g></g><g><g><g><path d="m47.613 161.094h12.026v38.906h-12.026z" fill="#ef7f72"></path></g></g><g><g><path d="m71.651 161.094h12.026v38.906h-12.026z" fill="#e8383b"></path></g></g><g><g><path d="m59.639 161.094h12.012v38.906h-12.012z" fill="#e95947"></path></g></g></g><g><g><path d="m83.676 203h-36.063c-1.657 0-3-1.343-3-3v-38.906c0-1.657 1.343-3 3-3h36.063c1.657 0 3 1.343 3 3v38.906c0 1.657-1.343 3-3 3zm-33.063-6h30.063v-32.906h-30.063z" fill="#1c2d6b"></path></g></g><g><g><g><path d="m71.613 134 6 18h8.957l-1.521-18z" fill="#a4d4a0"></path></g></g><g><g><path d="m94.177 134-1.522 18h8.958l6-18z" fill="#419b46"></path></g></g><g><g><path d="m85.049 134 1.521 18h6.085l1.522-18z" fill="#65bc49"></path></g></g></g><g><g><path d="m101.613 155h-24c-1.292 0-2.438-.826-2.846-2.051l-6-18c-.305-.915-.151-1.92.413-2.703s1.469-1.246 2.434-1.246h36c.964 0 1.87.463 2.434 1.246.564.782.717 1.788.413 2.703l-6 18c-.411 1.225-1.557 2.051-2.848 2.051zm-21.838-6h19.676l4-12h-27.676z" fill="#1c2d6b"></path></g></g><g><g><g><path d="m131.613 171.547h-36c-1.657 0-3-1.343-3-3s1.343-3 3-3h36c1.657 0 3 1.343 3 3s-1.343 3-3 3z" fill="#1c2d6b"></path></g></g><g><g><path d="m131.613 183.547h-36c-1.657 0-3-1.343-3-3s1.343-3 3-3h36c1.657 0 3 1.343 3 3s-1.343 3-3 3z" fill="#1c2d6b"></path></g></g><g><g><path d="m131.613 195.547h-36c-1.657 0-3-1.343-3-3s1.343-3 3-3h36c1.657 0 3 1.343 3 3s-1.343 3-3 3z" fill="#1c2d6b"></path></g></g></g><g><g><path d="m155.613 65h-58.154c-1.657 0-3-1.343-3-3s1.343-3 3-3h58.154c1.657 0 3 1.343 3 3s-1.343 3-3 3z" fill="#1c2d6b"></path></g></g><g><g><path d="m155.545 83h-52.547c-1.657 0-3-1.343-3-3s1.343-3 3-3h52.547c1.657 0 3 1.343 3 3s-1.343 3-3 3z" fill="#1c2d6b"></path></g></g><g><g><path d="m155.545 101h-47.009c-1.657 0-3-1.343-3-3s1.343-3 3-3h47.009c1.657 0 3 1.343 3 3s-1.343 3-3 3z" fill="#1c2d6b"></path></g></g><g><g><g><path d="m64.742 185.043c-.629-1.438-1.061-4.376-1.061-7.776 0-4.816.865-8.72 1.932-8.72-4.816 0-8.72 3.904-8.72 8.72 0 3.4 1.95 6.338 4.788 7.776-2.584 1.334-4.353 4.024-4.353 7.132v7.825h6.449v-7.825c0-3.108.392-5.798.965-7.132z" fill="#89aadb"></path></g></g><g><g><path d="m69.576 185.028c2.821-1.444 4.757-4.373 4.757-7.761 0-4.816-3.904-8.72-8.72-8.72 1.067 0 1.932 3.904 1.932 8.72 0 3.387-.429 6.317-1.054 7.761.576 1.328.972 4.027.972 7.148v7.824h6.498v-7.825c0-3.12-1.784-5.819-4.385-7.147z" fill="#4b67b0"></path></g></g><g><g><path d="m66.491 185.028c.625-1.444 1.054-4.373 1.054-7.761 0-4.816-.865-8.72-1.932-8.72s-1.932 3.904-1.932 8.72c0 3.4.432 6.338 1.061 7.776-.573 1.334-.965 4.024-.965 7.132v7.825h3.686v-7.825c0-3.12-.395-5.819-.972-7.147z" fill="#6287c5"></path></g></g></g><g><g><path d="m73.961 203h-16.633c-1.657 0-3-1.343-3-3v-7.825c0-2.642.933-5.127 2.566-7.074-1.906-2.111-3.001-4.876-3.001-7.834 0-6.462 5.257-11.72 11.72-11.72s11.72 5.257 11.72 11.72c0 2.938-1.083 5.69-2.968 7.797 1.652 1.952 2.596 4.45 2.596 7.111v7.825c0 1.657-1.343 3-3 3zm-13.633-6h10.633v-4.825c0-1.895-1.053-3.61-2.749-4.476-1.003-.513-1.635-1.544-1.636-2.67 0-1.127.63-2.159 1.633-2.672 1.927-.986 3.124-2.937 3.124-5.09 0-3.154-2.566-5.72-5.72-5.72s-5.72 2.566-5.72 5.72c0 2.163 1.205 4.117 3.145 5.1 1.005.509 1.64 1.539 1.644 2.665s-.623 2.16-1.624 2.677c-1.684.87-2.729 2.581-2.729 4.467v4.824z" fill="#1c2d6b"></path></g></g></g></svg>