<!-- icon666.com - MILLIONS vector ICONS FREE --><svg id="Capa_1" enable-background="new 0 0 512 512" viewBox="0 0 512 512" xmlns="http://www.w3.org/2000/svg"><g id="emoji_x2F_slightly-frowning"><g id="XMLID_1_"><path d="m245.33 42.67c111.75 0 202.67 90.92 202.67 202.66 0 111.75-90.92 202.67-202.67 202.67-111.74 0-202.66-90.92-202.66-202.67 0-111.74 90.92-202.66 202.66-202.66zm181.34 202.66c0-99.99-81.35-181.33-181.34-181.33s-181.33 81.34-181.33 181.33 81.34 181.34 181.33 181.34 181.34-81.35 181.34-181.34z" fill="#000000" style="fill: rgb(175, 175, 175);"></path><path d="m328.31 313.21c4.16 4.18 4.16 10.92 0 15.1-4.18 4.16-10.93 4.16-15.09 0-18.13-18.15-42.24-28.14-67.88-28.14s-49.75 9.99-67.88 28.14c-2.09 2.07-4.82 3.12-7.55 3.12s-5.46-1.05-7.55-3.12c-4.16-4.18-4.16-10.92 0-15.1 22.18-22.17 51.64-34.37 82.98-34.37s60.8 12.2 82.97 34.37z" fill="#000000" style="fill: rgb(175, 175, 175);"></path><path d="m320 181.33v42.67c0 5.89-4.78 10.67-10.67 10.67-5.88 0-10.66-4.78-10.66-10.67v-42.67c0-5.88 4.78-10.66 10.66-10.66 5.89 0 10.67 4.78 10.67 10.66z" fill="#000000" style="fill: rgb(175, 175, 175);"></path><path d="m192 181.33v42.67c0 5.89-4.78 10.67-10.67 10.67-5.88 0-10.66-4.78-10.66-10.67v-42.67c0-5.88 4.78-10.66 10.66-10.66 5.89 0 10.67 4.78 10.67 10.66z" fill="#000000" style="fill: rgb(175, 175, 175);"></path></g></g></svg>