<!-- icon666.com - MILLIONS vector ICONS FREE --><svg version="1.1" id="Layer_1" xmlns="http://www.w3.org/2000/svg" xmlns:xlink="http://www.w3.org/1999/xlink" x="0px" y="0px" viewBox="0 0 496 496" style="enable-background:new 0 0 496 496;" xml:space="preserve"><g><g><g><path d="M336,280h-32v-14.984c15.296-15.032,24-35.608,24-57.016c0-44.112-35.888-80-80-80s-80,35.888-80,80 c0,21.408,8.704,41.992,24,57.016V280h-32v16h32v32h112v-32h32V280z M288,312h-80v-16h80V312z M290.656,255.608L288,257.992V280 h-32v-41.136c13.768-3.576,24-16,24-30.864c0-17.648-14.352-32-32-32s-32,14.352-32,32c0,14.864,10.232,27.288,24,30.864V280h-32 v-22.008l-2.656-2.384C191.784,243.44,184,226.088,184,208c0-35.288,28.712-64,64-64c35.288,0,64,28.712,64,64 C312,226.088,304.216,243.44,290.656,255.608z M248,224c-8.824,0-16-7.176-16-16c0-8.824,7.176-16,16-16c8.824,0,16,7.176,16,16 C264,216.824,256.824,224,248,224z" fill="#000000" style="fill: rgb(125, 125, 125);"></path><path d="M29.08,112.984L8.808,133.256L42.744,167.2l20.272-20.272c0.328,0.136,0.656,0.272,0.984,0.4V176h48v-28.672 c0.328-0.136,0.656-0.264,0.984-0.4l20.272,20.272l33.936-33.944l-20.272-20.272c0.136-0.328,0.272-0.656,0.408-0.984H176V64 h-28.672c-0.136-0.328-0.272-0.656-0.408-0.984l20.272-20.272L133.256,8.8l-20.272,20.272c-0.328-0.128-0.656-0.264-0.984-0.4V0 H64v28.672c-0.328,0.136-0.656,0.264-0.984,0.4L42.744,8.808L8.808,42.744L29.08,63.016c-0.136,0.328-0.272,0.656-0.408,0.984H0 v48h28.672C28.808,112.328,28.944,112.656,29.08,112.984z M16,80h24.312l1.704-5.712c0.976-3.256,2.232-6.32,3.752-9.112 l2.848-5.248L31.432,42.744l11.312-11.32L59.92,48.616l5.248-2.84c2.824-1.528,5.88-2.792,9.112-3.752L80,40.32V16h16v24.32 l5.72,1.696c3.224,0.96,6.288,2.216,9.112,3.752l5.248,2.84l17.176-17.184l11.312,11.32L127.384,59.92l2.848,5.248 c1.512,2.792,2.776,5.856,3.752,9.112l1.704,5.72H160v16h-24.312l-1.704,5.712c-0.976,3.256-2.232,6.32-3.752,9.112l-2.848,5.248 l17.184,17.176l-11.312,11.32l-17.176-17.184l-5.248,2.84c-2.824,1.528-5.88,2.792-9.112,3.752L96,135.68V160H80v-24.32 l-5.72-1.696c-3.224-0.96-6.288-2.216-9.112-3.752l-5.248-2.848l-17.176,17.184l-11.312-11.32l17.184-17.176l-2.848-5.248 c-1.512-2.792-2.776-5.856-3.752-9.112L40.312,96H16V80z" fill="#000000" style="fill: rgb(125, 125, 125);"></path><path d="M88,120c17.648,0,32-14.352,32-32s-14.352-32-32-32S56,70.352,56,88S70.352,120,88,120z M88,72c8.824,0,16,7.176,16,16 s-7.176,16-16,16s-16-7.176-16-16S79.176,72,88,72z" fill="#000000" style="fill: rgb(125, 125, 125);"></path><path d="M467.328,64c-0.136-0.328-0.272-0.656-0.408-0.984l20.272-20.272L453.256,8.8l-20.272,20.272 c-0.328-0.128-0.656-0.264-0.984-0.4V0h-48v28.672c-0.328,0.136-0.656,0.264-0.984,0.4L362.744,8.8l-33.936,33.944l20.272,20.272 c-0.136,0.328-0.272,0.656-0.408,0.984H320v48h28.672c0.136,0.328,0.272,0.656,0.408,0.984l-20.272,20.272l33.936,33.944 l20.272-20.272c0.328,0.136,0.656,0.272,0.984,0.4V176h48v-28.672c0.328-0.136,0.656-0.264,0.984-0.4l20.272,20.272 l33.936-33.944l-20.272-20.272c0.136-0.328,0.272-0.656,0.408-0.984H496V64H467.328z M480,96h-24.312l-1.704,5.712 c-0.976,3.256-2.232,6.32-3.752,9.112l-2.848,5.248l17.184,17.176l-11.312,11.32l-17.176-17.184l-5.248,2.84 c-2.824,1.528-5.88,2.792-9.112,3.752L416,135.68V160h-16v-24.32l-5.72-1.696c-3.224-0.96-6.288-2.216-9.112-3.752l-5.248-2.84 l-17.176,17.184l-11.312-11.32l17.184-17.176l-2.848-5.248c-1.512-2.792-2.776-5.856-3.752-9.112L360.312,96H336V80h24.312 l1.704-5.712c0.976-3.256,2.232-6.32,3.752-9.112l2.848-5.248l-17.184-17.176l11.312-11.32l17.176,17.184l5.248-2.84 c2.824-1.528,5.88-2.792,9.112-3.752L400,40.32V16h16v24.32l5.72,1.696c3.224,0.96,6.288,2.216,9.112,3.752l5.248,2.84 l17.176-17.184l11.312,11.32L447.384,59.92l2.848,5.248c1.512,2.792,2.776,5.856,3.752,9.112l1.704,5.72H480V96z" fill="#000000" style="fill: rgb(125, 125, 125);"></path><path d="M408,56c-17.648,0-32,14.352-32,32s14.352,32,32,32s32-14.352,32-32S425.648,56,408,56z M408,104 c-8.824,0-16-7.176-16-16s7.176-16,16-16c8.824,0,16,7.176,16,16S416.824,104,408,104z" fill="#000000" style="fill: rgb(125, 125, 125);"></path><path d="M466.92,383.016l20.272-20.272L453.256,328.8l-20.272,20.272c-0.328-0.136-0.656-0.272-0.984-0.4V320h-48v28.672 c-0.328,0.136-0.656,0.264-0.984,0.4L362.744,328.8l-33.936,33.944l20.272,20.272c-0.136,0.328-0.272,0.656-0.408,0.984H320v48 h28.672c0.136,0.328,0.272,0.656,0.408,0.984l-20.272,20.272l33.936,33.944l20.272-20.272c0.328,0.136,0.656,0.272,0.984,0.4V496 h48v-28.672c0.328-0.136,0.656-0.264,0.984-0.4l20.272,20.272l33.936-33.944l-20.272-20.272c0.136-0.328,0.272-0.656,0.408-0.984 H496v-48h-28.672C467.192,383.672,467.056,383.344,466.92,383.016z M480,416h-24.312l-1.704,5.712 c-0.976,3.256-2.232,6.32-3.752,9.112l-2.848,5.248l17.184,17.176l-11.312,11.32l-17.176-17.184l-5.248,2.84 c-2.824,1.528-5.88,2.792-9.112,3.752L416,455.68V480h-16v-24.32l-5.72-1.696c-3.224-0.96-6.288-2.216-9.112-3.752l-5.248-2.84 l-17.176,17.184l-11.312-11.32l17.184-17.176l-2.848-5.248c-1.512-2.792-2.776-5.856-3.752-9.112l-1.704-5.72H336v-16h24.312 l1.704-5.712c0.976-3.256,2.232-6.32,3.752-9.112l2.848-5.248l-17.184-17.176l11.312-11.32l17.176,17.184l5.248-2.84 c2.824-1.528,5.88-2.792,9.112-3.752l5.72-1.704V336h16v24.32l5.72,1.696c3.224,0.96,6.288,2.216,9.112,3.752l5.248,2.84 l17.176-17.184l11.312,11.32l-17.184,17.176l2.848,5.248c1.512,2.792,2.776,5.856,3.752,9.112l1.704,5.72H480V416z" fill="#000000" style="fill: rgb(125, 125, 125);"></path><path d="M408,376c-17.648,0-32,14.352-32,32s14.352,32,32,32s32-14.352,32-32S425.648,376,408,376z M408,424 c-8.824,0-16-7.176-16-16c0-8.824,7.176-16,16-16c8.824,0,16,7.176,16,16C424,416.824,416.824,424,408,424z" fill="#000000" style="fill: rgb(125, 125, 125);"></path><path d="M146.92,383.016l20.272-20.272L133.256,328.8l-20.272,20.272c-0.328-0.136-0.656-0.272-0.984-0.4V320H64v28.672 c-0.328,0.136-0.656,0.264-0.984,0.4L42.744,328.8L8.808,362.744l20.272,20.272c-0.136,0.328-0.272,0.656-0.408,0.984H0v48 h28.672c0.136,0.328,0.272,0.656,0.408,0.984L8.808,453.256L42.744,487.2l20.272-20.272c0.328,0.136,0.656,0.272,0.984,0.4V496 h48v-28.672c0.328-0.136,0.656-0.264,0.984-0.4l20.272,20.272l33.936-33.944l-20.272-20.272c0.136-0.328,0.272-0.656,0.408-0.984 H176v-48h-28.672C147.192,383.672,147.056,383.344,146.92,383.016z M160,416h-24.312l-1.704,5.712 c-0.976,3.256-2.232,6.32-3.752,9.112l-2.848,5.248l17.184,17.176l-11.312,11.32l-17.176-17.184l-5.248,2.84 c-2.824,1.528-5.88,2.792-9.112,3.752L96,455.68V480H80v-24.32l-5.72-1.696c-3.224-0.96-6.288-2.216-9.112-3.752l-5.248-2.848 l-17.176,17.184l-11.312-11.32l17.184-17.176l-2.848-5.248c-1.512-2.792-2.776-5.856-3.752-9.112L40.312,416H16v-16h24.312 l1.704-5.712c0.976-3.256,2.232-6.32,3.752-9.112l2.848-5.248l-17.184-17.176l11.312-11.32l17.176,17.184l5.248-2.84 c2.824-1.528,5.88-2.792,9.112-3.752L80,360.32V336h16v24.32l5.72,1.696c3.224,0.96,6.288,2.216,9.112,3.752l5.248,2.84 l17.176-17.184l11.312,11.32l-17.184,17.176l2.848,5.248c1.512,2.792,2.776,5.856,3.752,9.112l1.704,5.72H160V416z" fill="#000000" style="fill: rgb(125, 125, 125);"></path><path d="M88,376c-17.648,0-32,14.352-32,32s14.352,32,32,32s32-14.352,32-32S105.648,376,88,376z M88,424 c-8.824,0-16-7.176-16-16c0-8.824,7.176-16,16-16s16,7.176,16,16C104,416.824,96.824,424,88,424z" fill="#000000" style="fill: rgb(125, 125, 125);"></path><path d="M278.4,68.8l-12.8-9.6L256,72v-6.336C256,55.928,263.92,48,273.664,48H296V32h-22.336C255.104,32,240,47.104,240,65.664 V72l-9.6-12.8l-12.8,9.6l30.4,40.528L278.4,68.8z" fill="#000000" style="fill: rgb(125, 125, 125);"></path><path d="M217.6,419.2l12.8,9.6L240,416v6.336c0,9.736-7.92,17.664-17.664,17.664H200v16h22.336 c18.56,0,33.664-15.104,33.664-33.664V416l9.6,12.8l12.8-9.6L248,378.664L217.6,419.2z" fill="#000000" style="fill: rgb(125, 125, 125);"></path><path d="M395.2,217.6L354.664,248l40.536,30.4l9.592-12.8L392,256h6.336c9.744,0,17.664,7.928,17.664,17.664V296h16v-22.336 c0-18.56-15.104-33.664-33.664-33.664H392l12.8-9.6L395.2,217.6z" fill="#000000" style="fill: rgb(125, 125, 125);"></path><path d="M100.8,278.4l40.536-30.4L100.8,217.6l-9.6,12.8L104,240h-6.336C87.92,240,80,232.072,80,222.336V200H64v22.336 C64,240.896,79.104,256,97.664,256H104l-12.8,9.6L100.8,278.4z" fill="#000000" style="fill: rgb(125, 125, 125);"></path></g></g></g></svg>