<!-- icon666.com - MILLIONS vector ICONS FREE --><svg version="1.1" id="Capa_1" xmlns="http://www.w3.org/2000/svg" xmlns:xlink="http://www.w3.org/1999/xlink" x="0px" y="0px" viewBox="0 0 512 512" style="enable-background:new 0 0 512 512;" xml:space="preserve"><path style="fill:#FFA000;" d="M336.609,506.561l-76.366-41.577c-2.546-1.697-5.94-1.697-8.485,0l-76.366,41.577 c-5.94,3.394-12.728-0.849-12.728-7.637V343.647h186.672v155.277C349.336,505.712,342.548,509.955,336.609,506.561z"></path><path style="fill:#37474F;" d="M171.056,512c-2.155,0-4.302-0.552-6.237-1.68c-4.005-2.325-6.398-6.584-6.398-11.396V343.647 c0-2.342,1.901-4.243,4.243-4.243h186.672c2.342,0,4.243,1.901,4.243,4.243v155.277c0,4.803-2.393,9.062-6.398,11.396 c-3.886,2.257-8.612,2.232-12.634-0.042l-76.332-41.56c-1.434-0.933-2.995-0.933-4.098-0.195l-76.688,41.772 C175.425,511.423,173.236,512,171.056,512z M255.915,459.452c2.308,0,4.684,0.653,6.686,1.994l76.044,41.382 c0.025,0.017,0.051,0.034,0.076,0.042c1.918,1.086,3.462,0.535,4.209,0.102c1.358-0.789,2.172-2.299,2.172-4.056V347.889H166.915 v151.035c0,1.748,0.815,3.267,2.172,4.056c0.747,0.441,2.282,1.001,4.217-0.102l76.434-41.619 C251.511,460.063,253.684,459.452,255.915,459.452z"></path><circle style="fill:#FFA000;" cx="256" cy="207.885" r="169.702"></circle><path style="fill:#37474F;" d="M256,381.83c-95.916,0-173.945-78.029-173.945-173.945S160.093,33.94,256,33.94 s173.945,78.029,173.945,173.945S351.916,381.83,256,381.83z M256,42.426c-91.232,0-165.46,74.228-165.46,165.46 s74.228,165.46,165.46,165.46s165.46-74.228,165.46-165.46S347.232,42.426,256,42.426z"></path><path style="fill:#FFCA28;" d="M336.609,472.621l-76.366-41.577c-2.546-1.697-5.94-1.697-8.485,0l-76.366,41.577 c-5.94,3.394-12.728-0.849-12.728-7.637V309.706h186.672v155.277C349.336,471.772,342.548,476.015,336.609,472.621z"></path><path style="fill:#37474F;" d="M171.056,478.06c-2.155,0-4.302-0.552-6.237-1.68c-4.005-2.325-6.398-6.584-6.398-11.396V309.706 c0-2.342,1.901-4.243,4.243-4.243h186.672c2.342,0,4.243,1.901,4.243,4.243v155.277c0,4.803-2.393,9.062-6.398,11.396 c-3.886,2.257-8.612,2.232-12.634-0.042l-76.332-41.56c-1.434-0.942-2.995-0.933-4.098-0.195l-76.688,41.772 C175.425,477.483,173.236,478.06,171.056,478.06z M255.915,425.511c2.308,0,4.684,0.653,6.686,1.994l76.044,41.382 c0.025,0.017,0.051,0.034,0.076,0.042c1.918,1.095,3.462,0.535,4.209,0.102c1.358-0.789,2.172-2.299,2.172-4.056V313.949H166.915 v151.035c0,1.748,0.815,3.267,2.172,4.056c0.747,0.441,2.282,1.001,4.217-0.102l76.434-41.619 C251.511,426.122,253.684,425.511,255.915,425.511z"></path><circle style="fill:#FFCA28;" cx="256" cy="173.945" r="169.702"></circle><path style="fill:#37474F;" d="M256,347.889c-95.916,0-173.945-78.029-173.945-173.945S160.093,0,256,0 s173.945,78.029,173.945,173.945S351.916,347.889,256,347.889z M256,8.485c-91.232,0-165.46,74.228-165.46,165.46 s74.228,165.46,165.46,165.46s165.46-74.228,165.46-165.46S347.232,8.485,256,8.485z"></path><circle style="fill:#26C6DA;" cx="256" cy="173.945" r="127.277"></circle><path style="fill:#37474F;" d="M256,305.464c-72.522,0-131.519-58.997-131.519-131.519S183.486,42.426,256,42.426 s131.519,58.997,131.519,131.519S328.522,305.464,256,305.464z M256,50.911c-67.838,0-123.034,55.196-123.034,123.034 S188.162,296.979,256,296.979s123.034-55.196,123.034-123.034S323.847,50.911,256,50.911z"></path><path style="fill:#ECEFF1;" d="M263.637,95.033l16.97,35.637c0.849,2.546,3.394,4.243,6.788,5.091l38.183,5.94 c6.788,0.849,9.334,9.334,5.091,14.425l-28.001,28.849c-1.697,1.697-2.546,4.243-2.546,7.637l6.788,39.88 c0.848,6.788-5.94,11.879-12.728,8.485l-33.94-18.667c-2.546-1.697-5.94-1.697-8.485,0l-33.092,18.667 c-5.94,3.394-13.576-1.697-12.728-8.485l6.788-39.88c0.849-2.546,0-5.091-2.546-7.637l-28.001-28.849 c-5.091-5.091-1.697-13.576,5.091-14.425l38.183-5.94c2.546-0.849,5.091-2.546,6.788-5.091l16.97-35.637 C251.757,89.094,260.243,89.094,263.637,95.033z"></path><path style="fill:#37474F;" d="M298.587,246.306c-2.096,0-4.251-0.509-6.296-1.536l-34.085-18.744 c-1.426-0.925-2.987-0.925-4.081-0.187l-33.363,18.828c-4.132,2.367-9.257,2.147-13.347-0.594c-4.09-2.724-6.262-7.374-5.668-12.117 l6.814-40.067c0.28-0.993,0.602-1.96-1.366-3.929L179.15,159.07c-3.377-3.377-4.523-8.349-2.944-12.94 c1.621-4.726,5.668-8.035,10.555-8.646l38.056-5.923c0.424-0.204,2.503-1.145,3.912-3.25l16.665-35.103 c1.697-3.971,5.464-6.593,10.012-6.856c4.964-0.195,9.452,2.24,11.93,6.576c0.059,0.093,0.11,0.187,0.153,0.28l16.97,35.637 c0.509,1.417,1.926,2.283,3.988,2.8l37.81,5.863c4.387,0.543,8.095,3.462,9.8,7.781c1.816,4.607,1.01,9.8-2.113,13.551 l-28.213,29.087c-0.899,0.908-1.341,2.469-1.341,4.684l6.729,39.167c0.611,4.913-1.383,9.512-5.184,12.202 C303.729,245.525,301.2,246.306,298.587,246.306z M255.924,216.786c2.316,0,4.667,0.662,6.678,1.994l33.635,18.481 c1.612,0.806,3.419,0.755,4.777-0.204c1.256-0.891,1.892-2.401,1.689-4.039l-6.763-39.685c-0.059-5.261,1.222-8.841,3.725-11.353 l27.958-28.807c0.891-1.103,1.188-3.063,0.518-4.76c-0.322-0.832-1.162-2.257-3.08-2.495l-38.319-5.957 c-5.422-1.341-8.892-4.132-10.157-7.951l-16.69-34.984c-1.044-1.722-2.724-2.291-4.013-2.198c-0.747,0.042-2.104,0.348-2.766,1.875 l-17.038,35.79c-2.384,3.657-5.575,6.058-9.283,7.289l-38.879,6.109c-2.096,0.263-3.267,1.722-3.708,3.004 c-0.246,0.73-0.662,2.605,0.967,4.226l28.052,28.892c4.641,4.65,4.48,9.062,3.521,11.939l-6.627,39.244 c-0.263,2.121,1.451,3.462,1.986,3.818c0.543,0.356,2.444,1.442,4.455,0.272l33.109-18.676 C251.486,217.405,253.684,216.786,255.924,216.786z"></path><path style="fill:#80DEEA;" d="M145.694,178.187c-2.342,0-4.243-1.901-4.243-4.243c0-63.163,51.386-114.549,114.549-114.549 c2.342,0,4.243,1.901,4.243,4.243c0,2.342-1.892,4.243-4.243,4.243c-58.488,0-106.064,47.576-106.064,106.064 C149.936,176.287,148.044,178.187,145.694,178.187z"></path><path style="fill:#ECEFF1;" d="M289.94,398.8H222.06c-5.091,0-8.485-3.394-8.485-8.485v-8.485c0-5.091,3.394-8.485,8.485-8.485 h67.881c5.091,0,8.485,3.394,8.485,8.485v8.485C298.426,395.406,295.031,398.8,289.94,398.8z"></path><path style="fill:#37474F;" d="M289.94,403.043H222.06c-7.374,0-12.728-5.354-12.728-12.728v-8.485 c0-7.374,5.354-12.728,12.728-12.728h67.881c7.374,0,12.728,5.354,12.728,12.728v8.485 C302.668,397.689,297.322,403.043,289.94,403.043z M222.06,377.587c-2.732,0-4.243,1.51-4.243,4.243v8.485 c0,2.732,1.51,4.243,4.243,4.243h67.881c2.732,0,4.243-1.51,4.243-4.243v-8.485c0-2.732-1.51-4.243-4.243-4.243H222.06z"></path></svg>