<!-- icon666.com - MILLIONS vector ICONS FREE --><svg id="Layer_1" enable-background="new 0 0 512 512" viewBox="0 0 512 512" xmlns="http://www.w3.org/2000/svg"><g clip-rule="evenodd" fill-rule="evenodd"><path d="m421.2 425.4v-148h-414.3v147.9c0 13.2 10.8 24 24 24h366.3c13.2 0 24-10.8 24-23.9z" fill="#fccb88"></path><path d="m6.9 277.4h414.3v-59.2c0-13.2-10.8-24-24-24-122.1 0-244.2 0-366.3 0-13.2 0-24 10.8-24 24z" fill="#fab659"></path><path d="m421.2 218.2v110.3l71.4-38.8c11.6-6.3 15.9-20.9 9.6-32.5l-71.9-132.2-126.9 69.3h93.8c13.2-.1 24 10.7 24 23.9z" fill="#fccb88"></path><path d="m134 194.2h169.3l126.9-69.3-27-49.7c-6.3-11.6-20.9-15.9-32.5-9.6z" fill="#fab659"></path><path d="m269.3 323.8h79.4c10.3 0 18.6 8.4 18.6 18.6v41.9c0 10.3-8.4 18.6-18.6 18.6h-79.4c-10.3 0-18.6-8.4-18.6-18.6v-41.9c-.1-10.2 8.3-18.6 18.6-18.6z" fill="#fab659"></path><path d="m508.3 253.8-98.9-182c-3.9-7.2-10.5-12.5-18.4-14.8s-16.3-1.5-23.5 2.5l-235.2 127.8h-101.4c-17 0-30.9 13.9-30.9 30.9v207.1c0 17 13.9 30.9 30.9 30.9h366.3c17 0 30.9-13.9 30.9-30.9v-92.8l67.8-36.8c14.9-8.1 20.5-26.9 12.4-41.9zm-180.3 116.5h32.4v14c0 6.4-5.3 11.7-11.7 11.7h-20.7zm-13.9 25.8h-44.9c-6.4 0-11.7-5.3-11.7-11.7v-14h56.6zm-14.1-65.4h48.6c6.4 0 11.7 5.3 11.7 11.7v14h-60.3zm-13.8 25.8h-28.6v-14c0-6.4 5.3-11.7 11.7-11.7h16.9zm-16.9-39.6h79.4c14.1 0 25.6 11.5 25.6 25.6v14 12.7 15.2c0 14.1-11.5 25.6-25.6 25.6h-79.4c-14.1 0-25.6-11.5-25.6-25.6v-41.9c0-14.1 11.5-25.6 25.6-25.6zm104.7-245.3c4-2.2 8.6-2.6 13-1.3s8 4.2 10.2 8.2l23.7 43.7-119.3 65.2h-140.4zm-343.1 129.6h366.3c9.4 0 17.1 7.7 17.1 17.1v52.3h-400.5v-52.3c0-9.5 7.7-17.1 17.1-17.1zm366.3 241.2h-366.3c-9.4 0-17.1-7.7-17.1-17.1v-141h400.4v141c.1 9.5-7.6 17.1-17 17.1zm92.1-158.8-61.2 33.3v-39.4-4.1-55.1c0-17-13.9-30.9-30.9-30.9h-66.7l97.1-53 68.6 126.1c4.4 8.2 1.3 18.6-6.9 23.1zm-322 58.9c0 3.8-3.1 6.9-6.9 6.9h-89.5c-3.8 0-6.9-3.1-6.9-6.9s3.1-6.9 6.9-6.9h89.5c3.8 0 6.9 3.1 6.9 6.9zm0 44.8c0 3.8-3.1 6.9-6.9 6.9h-89.5c-3.8 0-6.9-3.1-6.9-6.9s3.1-6.9 6.9-6.9h89.5c3.8 0 6.9 3.1 6.9 6.9z"></path></g></svg>