<!-- icon666.com - MILLIONS vector ICONS FREE --><svg id="svg8" viewBox="0 0 16.933333 16.933333" xmlns="http://www.w3.org/2000/svg" xmlns:svg="http://www.w3.org/2000/svg"><g id="layer2"><path id="rect4863" d="m14.552079.79376475h1.5875v4.23333315h-1.5875z" fill="#e4eff8"></path><path id="path4891" d="m14.552083.7937665v4.23333h.529167v-4.23333z" fill="#f8f8f8"></path><path id="rect4867" d="m15.610416.7937665v4.23333h.529167v-4.23333z" fill="#c4dcf0"></path><path id="path4778" d="m10.31875 6.0854265c0 .29316-.236.52916-.52916.52916h-7.93751c-.29315 0-.52916-.236-.52916-.52916v-3.70417c0-.29316.23601-.52916.52916-.52916h7.93751c.29316 0 .52916.236.52916.52916z" fill="#ff9751"></path><path id="path4856" d="m9.260417 1.8520965c.293159 0 .529166.23601.529166.52917v3.70417c0 .29316-.236007.52916-.529166.52916h.529166c.29316 0 .529167-.236.529167-.52916v-3.70417c0-.29316-.236007-.52917-.529167-.52917z" fill="#ff7f29"></path><path id="path4718" d="m10.31875.7937665c-.82945 0-1.577695.44831-2.212785 1.0573.561324-.00054 1.122576.001 1.683618.001.29316 0 .529167.23601.529167.52917v1.5875h-.264583c-.43974 0-.79375.35401-.79375.79375s.35401.79375.79375.79375h1.852083c.79375 0 1.852077-.79375 2.116666-.79375h.529167v-3.70417l-.529167.0134c-.529166 0-2.381256-.27802-3.704166-.27802z" fill="#ffc6a0"></path><path id="path4791" d="m10.823169 3.9687665.02475-1.85208c.0039-.29314-.264584-.79375-.79375-.79375h-1.296045c-.228103.15366-.446665.33108-.652157.52813.561324-.00054 1.122576.001 1.683618.001.29316 0 .529167.23601.529167.52917v1.5875z" fill="#ffaf7a"></path><path id="path4740" d="m14.552083 1.0583465-.529167.0134v3.69073h.529167z" fill="#ffaf7a"></path><path id="path4722" d="m14.022916 4.2333465c-.264589 0-1.322916.79375-2.116666.79375h-1.852083c-.346364 0-.6368-.22101-.745691-.52916-.02936.0831-.04806.1712-.04806.26458 0 .43974.35401.79375.79375.79375h1.852083c.79375 0 1.852077-.79375 2.116666-.79375h.529167v-.52917z" fill="#ffaf7a"></path><path id="path4685" d="m15.610416 11.906267c.293159 0 .529167-.23601.529167-.52917v-1.05833c0-.29316-.236008-.5291705-.529167-.5291705h-12.699996c-.29316 0-.52917.2360105-.52917.5291705v1.05833c0 .29316.23601.52917.52917.52917z" fill="#ff9751"></path><path id="path4690" d="m15.08125 9.7895965c.293159 0 .529166.2360105.529166.5291705v1.05833c0 .29316-.236007.52917-.529166.52917h.529166c.29316 0 .529167-.23601.529167-.52917v-1.05833c0-.29316-.236007-.5291705-.529167-.5291705z" fill="#ff7f29"></path><path id="path4692" d="m3.439584 9.7895965c-.293159 0-.529167.2360105-.529167.5291705v1.05833c0 .29316.236008.52917.529167.52917h-.529167c-.293159 0-.529166-.23601-.529166-.52917v-1.05833c0-.29316.236007-.5291705.529166-.5291705z" fill="#f8f8f8"></path><path id="path4694" d="m7.9375 9.7895965h2.64583v1.0583305h-2.64583z" fill="#e4eff8"></path><path id="path4696" d="m10.054167 9.7895965v1.0583395h.529166v-1.0583395z" fill="#c4dcf0"></path><path id="path4699" d="m7.9375 9.7895965v1.0583395h.529167v-1.0583395z" fill="#f8f8f8"></path><path id="path4719" d="m15.610416 9.7895965c.293159 0 .529167-.23601.529167-.52917v-1.05833c0-.29316-.236008-.52917-.529167-.52917h-12.699996c-.29316 0-.52917.23601-.52917.52917v1.05833c0 .29316.23601.52917.52917.52917z" fill="#ff9751"></path><path id="path4688" d="m7.200077 9.7901165c-.152384-.0106-.309357.0224-.452169.1049l-1.832963 1.0583405c-.80774.46638-.944641.42374-1.473812.42374 0 1.32292-.0016 3.43959-.0016 4.497919l.256315-.0134c1.33114 0 2.389519.27802 3.977019.27802 1.85208 0 4.233333-4.23333 4.233333-4.23333h-5.467366l1.102774-.63665c.38082-.219869.510292-.703349.290422-1.084179-.137419-.2380105-.378028-.3775705-.632003-.3953205z" fill="#ffc6a0"></path><path id="path4703" d="m5.937622 12.195657 1.604036-.92604c.338555-.195471.476919-.59912.349333-.953951-.06064.17244-.177892.3258-.349333.42478l-1.604036.926041c-.371613.214549-.259028.57215 0 .52917z" fill="#ffaf7a"></path><path id="path4695" d="m11.322306 11.906267c-.699092 1.12288-2.460994 3.70417-3.913973 3.70417-1.584138 0-2.641578-.27685-3.96875-.27802-.000039.15522 0 .41493 0 .5426l.256315-.0134c1.33114 0 2.389519.278019 3.977019.278019 1.85208 0 4.233333-4.233329 4.233333-4.233329z" fill="#ffaf7a"></path><path id="path4711" d="m6.737573 11.906267-.91674.52917h5.766057c.192025-.30844.31936-.52917.31936-.52917z" fill="#ffaf7a"></path><path id="path4717" d="m7.200077 9.7901165c-.152384-.0106-.309357.0224-.452169.1049l-1.832963 1.0583405c-.80774.46638-.944641.42374-1.473812.42374 0 .15564.000038.35458 0 .52917.529171 0 .666072.0426 1.473812-.42375l1.832963-1.05833c.142812-.0824.299785-.11555.452169-.1049.253975.0178.494585.15731.632003.39532.0244.0423.04298.0859.05891.13023.07403-.210571.06198-.450011-.05891-.6594-.137419-.2380105-.378028-.3775705-.632003-.3953205z" fill="#f8f8f8"></path><path id="path4701" d="m1.32292 11.112507h1.5875c.29316 0 .52916.23601.52916.52917v3.96875c0 .29316-.236.529169-.52916.529169h-1.5875c-.29316 0-.52917-.236009-.52917-.529169v-3.96875c0-.29316.23601-.52917.52917-.52917z" fill="#e4eff8"></path><path id="path4708" d="m2.38125 11.112517c.29316 0 .529167.23601.529167.52917v3.96875c0 .29316-.236007.529159-.529167.529159h.529167c.29316 0 .529166-.236.529166-.529159v-3.96875c0-.29316-.236006-.52917-.529166-.52917z" fill="#c4dcf0"></path><path id="path4715" d="m1.852083 11.112517c-.29316 0-.529166.23601-.529166.52917v3.96875c0 .29316.236006.529159.529166.529159h-.529166c-.29316 0-.529167-.236-.529167-.529159v-3.96875c0-.29316.236007-.52917.529167-.52917z" fill="#f8f8f8"></path><path id="path4671" d="m15.08125 7.6729365c.293159 0 .529166.236.529166.52916v1.05834c0 .29316-.236007.52916-.529166.52916h.529166c.29316 0 .529167-.236.529167-.52916v-1.05834c0-.29316-.236007-.52916-.529167-.52916z" fill="#ff7f29"></path><path id="path4674" d="m3.439584 7.6729365c-.293159 0-.529167.236-.529167.52916v1.05834c0 .29316.236008.52916.529167.52916h-.529167c-.293159 0-.529166-.236-.529166-.52916v-1.05834c0-.29316.236007-.52916.529166-.52916z" fill="#f8f8f8"></path><path id="path4676" d="m7.9375 7.6729265h2.64583v1.05833h-2.64583z" fill="#e4eff8"></path><path id="path4680" d="m10.054167 7.6729365v1.05833h.529166v-1.05833z" fill="#c4dcf0"></path><g fill="#f8f8f8"><path id="path4683" d="m7.9375 7.6729365v1.05833h.529167v-1.05833z"></path><path id="path4769" d="m10.31875.7937665c-.82945 0-1.577695.44831-2.212785 1.0573l.65319.00052c.476595-.32089.998896-.52865 1.559595-.52865 1.32291 0 3.175.27802 3.704166.27802l.529167-.0134v-.52917l-.529167.0134c-.529166 0-2.381256-.27802-3.704166-.27802z"></path><path id="path4763" d="m10.054167 3.9687665c-.43974 0-.79375.35401-.79375.79375 0 .0934.0187.18151.04806.26458.108891-.30816.399327-.52916.745691-.52916h1.5875c.146579 0 .264583-.11801.264583-.26459s-.118004-.26458-.264583-.26458z"></path><path id="path4861" d="m2.38125 1.8520965c-.29316 0-.529167.23601-.529167.52917v3.70417c0 .29316.236007.52916.529167.52916h-.529167c-.29316 0-.529166-.236-.529166-.52916v-3.70417c0-.29316.236006-.52917.529166-.52917z"></path></g><path id="path4796" d="m3.175 5.5562565c0-.43837-.35537-.79375-.79375-.79375v-1.05833c.43838 0 .79375-.35538.79375-.79375h5.29166c0 .43837.35537.79375.79375.79375v1.05833c-.43838 0-.79375.35538-.79375.79375z" fill="#e4eff8"></path><path id="path4836" d="m7.9375 2.9104365c0 .43837.35537.79375.79375.79375v1.05833c-.43838 0-.79375.35538-.79375.79375h.529167c0-.43837.35537-.79375.79375-.79375v-1.05833c-.43838 0-.79375-.35538-.79375-.79375z" fill="#c4dcf0"></path><path id="path4845" d="m3.704166 2.9104365c0 .43837-.355369.79375-.793749.79375v1.05833c.43838 0 .793749.35538.793749.79375h-.529166c0-.43837-.35537-.79375-.79375-.79375v-1.05833c.43838 0 .79375-.35538.79375-.79375z" fill="#f8f8f8"></path><path id="path5875" d="m10.318226.52916693c-.8887093 0-1.6706893.45829-2.3187193 1.05833007l-6.14794.00052c-.44239.00004-.79272.357552-.79272.792712v3.7052c0 .43517.35132.79326.79272.7932398l7.9375-.0005291c.4395393 0 .7942593-.35316.7942593-.7927099v-.2651009h1.32292c.4583 0 .96772-.22005 1.37511-.42374.2037-.10185.38735-.2029798.52917-.27389.14181-.0709.17553-.0795.21755-.0956h.2589c.000529.1461702.11945.2646302.26562.2640701h1.58595c.14617.0005555.2651-.1179.26562-.2640702v-4.23488187c-.00052-.1461699-.11945-.26411-.26562-.26355h-1.58595c-.14617-.00056-.2651.11764-.26562.26406l-.26355.00052c-.23289 0-.8318-.0645-1.5291-.13126-.69702-.0668-1.49612-.13332-2.1761-.13332zm0 .52968007c.64294 0 1.4241.0631 2.12856.13126.19949.0143 1.23091.1328099 1.57664.1328099.0873-.0000299.17579.00004.26355 0v3.175002h-.26355c-.14143 0-.29322.0745-.44906.1524399-.15585.0779-.33599.17472-.52917.2713001-.38636.1931799-.79926.3694901-1.13895.3694901h-1.85157c-.2977393 0-.5291593-.2381401-.5291593-.52968 0-.2904299.23143-.5281401.5291593-.5281401h1.58802c.34425-.005.35886-.51676 0-.52916h-1.05885l-.000529-1.3234399c-.000131-.43515-.348761-.793232-.7942503-.793232h-.9555c.4614-.3246401.96464-.52865 1.4846593-.52865zm4.49844 0h1.05833v3.703652l-1.05833-.000505zm-5.0275993 1.057822c.15116-.00001.2650493.12014.2650993.26406l.000503 1.3234399c-.1947793 0-.3738593.0507-.5296793.14107v-.14004c.000556-.14693-.11868-.26617-.26562-.2656199-.29538 0-.5271-.2404999-.5271-.52968-.000493-.14541-.119683-.2651-.266123-.26355h-5.29012c-.14644-.002-.26562.11814-.26613.26355 0 .2891801-.23171.52968-.5271.52968-.14693-.0005557-.26618.1186899-.26562.2656199v1.05678c-.00056.14694.11869.2661901.26562.2656199.29539 0 .5271.2405103.5271.5296803.0005.1454099.11969.2651098.26613.2635498h5.29012c.14644.00201.26563-.1181399.26613-.2635498 0-.2147502.12382-.4001501.31058-.48265.1332.43566.53694.7461998 1.0113093.7461998v.2651001c0 .1424-.1139393.2635498-.2650993.2635498l-7.9375.0005292c-.14238.0000101-.26355-.1129101-.26355-.26407v-3.705209c0-.15115.12067-.26354.26355-.26355zm-6.38256 1.0593598h4.82916c.0874.3314801.34681.6490602.76016.7596503v.59583c-.41791.11181-.6728.4281699-.76016.7596399h-4.82916c-.0874-.33147-.34681-.6490499-.7601599-.7596399v-.59583c.4133499-.1105901.6727999-.4281702.7601599-.7596503zm-1.2898399 5.0255402v1.0588498c0 .203.0753.3876.20153.52865-.12578.13975-.20153.3233692-.20153.5291592v.52969c-.26476.00003-.5295101-.000265-.79427 0-.44539005.00007-.79323005.35962-.79323005.79478v3.96875c0 .43516.35187.79268.79323005.79272h1.58905c.2381-.00002.452041-.10612.59686-.27027l.18707-.007c1.3221009 0 2.3601999.27699 3.9785699.27699.56381 0 1.12276-.32124 1.6092-.72037.5077-.41657.9894693-.95949 1.4102493-1.4981.68703-.8794 1.19431-1.72253 1.36478-2.01487h3.55327c.4424.00005.79272-.35859.79272-.79375v-1.05885c0-.19959-.0758-.3894092-.20154-.5291592.12625-.141051.20154-.325651.20154-.528651v-1.0588498c0-.4439298-.35756-.7932599-.79272-.7932398-4.28701-.0002911-9.0388983.000635-12.7020692.0001403-.43515.0001205-.79271.3494504-.79271.7933805zm.79271-.26407c1.7223109.0000399 3.1391399.00001 4.7635399 0v.7927199c-.000555.1461699.11738.2656099.26355.2661299h2.6478993c.14617-.00052.26411-.11996.26355-.2661299v-.7927199c1.55493-.0000101 3.31912 0 4.76353 0 .14186-.0000101.26355.1129099.26355.26407v1.0588498c0 .15114-.12169.26457-.26355.26458-4.23402.000767-8.4680393.000344-12.7020692 0-.14185-.00001-.26355-.11344-.26355-.26458v-1.0588498c0-.1511601.12169-.2640801.26355-.26407zm5.2926999 0c.71676 0 1.42049.00001 2.1166693 0v.5291698h-2.1166693zm-5.2926999 2.116669c1.0113099-.00019 2.0226209.00006 3.0339309 0l-1.160141.67024c-.72019.4158-.83866.39143-1.28002.38809-.14409-.16157-.35408-.26454-.5917-.26458-.0885-.00013-.17708.00008-.26562 0v-.52969c0-.15115.12169-.26407.2635501-.26406zm4.5010199.98702-1.60559.92552c-.30599.17709-.0404.63597.26562.45889l.44235-.25477h4.9263193c-.24158.3945-.64688 1.02718-1.16376 1.68879-.4060293.51973-.8683993 1.03669-1.3280793 1.41387-.4799299.39379-.91108.60151-1.27331.60151-1.55301 0-2.6059499-.27622-3.9692689-.2775v-3.95583c.3855289 0 .642929-.0563 1.342039-.45992l1.8340009-1.05679c.0967-.0558.202249-.0782.303849-.07079.16934.0123.32832.106835.4191.264062.14304.247748.0646.574088-.19327.722958zm3.4375193-.98702c1.58799-.00011 3.17545 0 4.76353 0 .14186-.00001.26355.11291.26355.26406v1.05885c0 .15115-.12169.26457-.26355.26459h-8.1845093l.25011-.14366c.16497-.0952.29456-.23114.38447-.38499h2.5228493c.14632-.00058.26439-.11981.26355-.26614zm-.52917.000529v.52863h-2.1151193c.000318-.17924-.0456-.36072-.14211-.52864zm-8.9963492 1.322381h1.58905c.14289.00003.26355.11446.26355.26562v3.96875c0 .15116-.12272.26355-.26355.26355h-1.58905c-.14083 0-.26355-.11239-.26355-.26355v-3.96875c0-.15116.12066-.26559.26355-.26562z" fill="#333" font-variant-ligatures="normal" font-variant-position="normal" font-variant-caps="normal" font-variant-numeric="normal" font-variant-alternates="normal" font-feature-settings="normal" text-indent="0" text-align="start" text-decoration-line="none" text-decoration-style="solid" text-decoration-color="#000000" text-transform="none" text-orientation="mixed" white-space="normal" shape-padding="0" isolation="auto" mix-blend-mode="normal" solid-color="#000000" solid-opacity="1" vector-effect="none"></path></g></svg>