<!-- icon666.com - MILLIONS vector ICONS FREE --><svg viewBox="0 0 32 32" xmlns="http://www.w3.org/2000/svg"><g id="_20_money_saving" data-name="20 money saving"><path d="m27.45 8.11-12-6a1 1 0 0 0 -.9 0l-12 6a1 1 0 0 0 .45 1.89h24a1 1 0 0 0 .45-1.89z" fill="#548aff"></path><rect fill="#548aff" height="14" rx="1" width="6" x="4" y="11"></rect><path d="m10 12v2h-2a1 1 0 0 0 -1 1v10h-2a1 1 0 0 1 -1-1v-12a1 1 0 0 1 1-1h4a1 1 0 0 1 1 1z" opacity=".08"></path><rect fill="#548aff" height="7" rx="1" width="6" x="20" y="11"></rect><path d="m26 12v2h-2a1 1 0 0 0 -1 1v3h-2a1 1 0 0 1 -1-1v-5a1 1 0 0 1 1-1h4a1 1 0 0 1 1 1z" opacity=".08"></path><rect fill="#548aff" height="7" rx="1" width="6" x="12" y="11"></rect><path d="m18 12v2h-2a1 1 0 0 0 -1 1v3h-2a1 1 0 0 1 -1-1v-5a1 1 0 0 1 1-1h4a1 1 0 0 1 1 1z" opacity=".08"></path><rect fill="#91c0ff" height="5" rx="1" width="8" x="2" y="23"></rect><rect fill="#02c26a" height="14" rx="1" width="22" x="8" y="16"></rect><path d="m26 22a1 1 0 0 1 -1-1 1 1 0 0 0 -1-1h-10a1 1 0 0 0 -1 1 1 1 0 0 1 -1 1 1 1 0 0 0 -1 1v2a1 1 0 0 0 1 1 1 1 0 0 1 1 1 1 1 0 0 0 1 1h10a1 1 0 0 0 1-1 1 1 0 0 1 1-1 1 1 0 0 0 1-1v-2a1 1 0 0 0 -1-1z" opacity=".08"></path><path d="m26 21a1 1 0 0 1 -1-1 1 1 0 0 0 -1-1h-10a1 1 0 0 0 -1 1 1 1 0 0 1 -1 1 1 1 0 0 0 -1 1v2a1 1 0 0 0 1 1 1 1 0 0 1 1 1 1 1 0 0 0 1 1h10a1 1 0 0 0 1-1 1 1 0 0 1 1-1 1 1 0 0 0 1-1v-2a1 1 0 0 0 -1-1z" fill="#3cde8d"></path><circle cx="19" cy="24" opacity=".08" r="1"></circle><rect fill="#91c0ff" height="5" rx="1" width="26" x="2" y="8"></rect><circle cx="15" cy="7" opacity=".08" r="1"></circle><path d="m27.45 8.11-12-6a1 1 0 0 0 -.9 0l-12 6a1 1 0 0 0 .45 1.89h24a1 1 0 0 0 .45-1.89zm-20.21-.11 7.76-3.88 7.76 3.88zm7.76-3a1 1 0 1 1 -1 1 1 1 0 0 1 1-1z"></path><path d="m20 23a1 1 0 1 1 -1-1 1 1 0 0 1 1 1zm10-6v12a1 1 0 0 1 -1 1h-20a1 1 0 0 1 -1-1v-1h-5a1 1 0 0 1 -1-1v-3a1 1 0 0 1 1-1h1v-10h-1a1 1 0 0 1 -1-1v-3a1 1 0 0 1 1-1h24a1 1 0 0 1 1 1v3a1 1 0 0 1 -1 1h-1v3h3a1 1 0 0 1 1 1zm-6-4h-2v3h2zm-4 3v-3h-2v3zm-8 0v-3h-2v3zm2 0h2v-3h-2zm-10-5h22v-1h-22zm2 12h2v-10h-2zm2 3v-1h-4v1zm20-8h-18v10h18zm-3 2a1 1 0 0 0 1 1 1 1 0 0 1 1 1v2a1 1 0 0 1 -1 1 1 1 0 0 0 -1 1 1 1 0 0 1 -1 1h-10a1 1 0 0 1 -1-1 1 1 0 0 0 -1-1 1 1 0 0 1 -1-1v-2a1 1 0 0 1 1-1 1 1 0 0 0 1-1 1 1 0 0 1 1-1h10a1 1 0 0 1 1 1zm0 2.83a3 3 0 0 1 -1.83-1.83h-8.34a3 3 0 0 1 -1.83 1.83v.34a3 3 0 0 1 1.83 1.83h8.34a3 3 0 0 1 1.83-1.83z"></path></g></svg>