<!-- icon666.com - MILLIONS vector ICONS FREE --><svg enable-background="new 0 0 32 32" viewBox="0 0 32 32" xmlns="http://www.w3.org/2000/svg"><g id="Layer_1"><g fill="rgb(0,0,0)"><path d="m28.2227 6h-24.4454c-1.5312 0-2.7773 1.2461-2.7773 2.7773v14.4453c0 1.5313 1.2461 2.7774 2.7773 2.7774h5.2227c.5527 0 1-.4478 1-1s-.4473-1-1-1h-5.2227c-.4287 0-.7773-.3486-.7773-.7773v-9.2227h26v9.2227c0 .4287-.3486.7773-.7773.7773h-5.1436c-.5527 0-1 .4478-1 1s.4473 1 1 1h5.1436c1.5312 0 2.7773-1.2461 2.7773-2.7773v-14.4454c0-1.5312-1.2461-2.7773-2.7773-2.7773zm-25.2227 6v-3.2227c0-.4287.3486-.7773.7773-.7773h24.4453c.4288 0 .7774.3486.7774.7773v3.2227z" fill="rgb(0,0,0)" style="fill: rgb(191, 191, 191);"></path><path d="m19 24h-2v-2c0-.5522-.4473-1-1-1s-1 .4478-1 1v2h-2c-.5527 0-1 .4478-1 1s.4473 1 1 1h2v2c0 .5522.4473 1 1 1s1-.4478 1-1v-2h2c.5527 0 1-.4478 1-1s-.4473-1-1-1z" fill="rgb(0,0,0)" style="fill: rgb(191, 191, 191);"></path></g></g></svg>